<?xml version="1.0" encoding="UTF-8" standalone="no"?>
<!-- Created with Inkscape (http://www.inkscape.org/) -->

<svg
   width="210mm"
   height="297mm"
   viewBox="0 0 210 297"
   version="1.1"
   id="svg1"
   xml:space="preserve"
   inkscape:version="1.4.2 (f4327f4, 2025-05-13)"
   sodipodi:docname="drawing.svg"
   xmlns:inkscape="http://www.inkscape.org/namespaces/inkscape"
   xmlns:sodipodi="http://sodipodi.sourceforge.net/DTD/sodipodi-0.dtd"
   xmlns="http://www.w3.org/2000/svg"
   xmlns:svg="http://www.w3.org/2000/svg"><sodipodi:namedview
     id="namedview1"
     pagecolor="#ffffff"
     bordercolor="#000000"
     borderopacity="0.25"
     inkscape:showpageshadow="2"
     inkscape:pageopacity="0.0"
     inkscape:pagecheckerboard="0"
     inkscape:deskcolor="#d1d1d1"
     inkscape:document-units="mm"
     inkscape:zoom="0.52473017"
     inkscape:cx="284.90833"
     inkscape:cy="544.08916"
     inkscape:window-width="1920"
     inkscape:window-height="1051"
     inkscape:window-x="-9"
     inkscape:window-y="-9"
     inkscape:window-maximized="1"
     inkscape:current-layer="layer1" /><defs
     id="defs1" /><g
     inkscape:label="Layer 1"
     inkscape:groupmode="layer"
     id="layer1"><path
       style="fill:#000000"
       d="M -123.8891 150.4399 h 254 z m 208.1169 77.3768 c 4.6542 -1.3487 11.2535 -5.1322 16.2513 -9.317 c 6.7607 -5.6609 13.0161 -13.974 17.6113 -23.4043 l 1.5115 -3.1018 l 0.786 0.456 c 4.1151 2.3876 8.4808 8.299 9.7267 13.1706 c 0.6388 2.4977 0.6871 6.1431 0.1137 8.5844 c -0.5274 2.2456 -2.1622 5.5639 -3.6872 7.4844 c -1.4258 1.7956 -4.273 3.9772 -5.9361 4.5485 c -2.4695 0.8484 -4.9881 0.3006 -6.4151 -1.3954 c -0.594 -0.7059 -0.6852 -0.7339 -1.2239 -0.3762 c -0.8192 0.5439 -0.7361 0.8808 0.5252 2.1297 c 2.2716 2.2491 5.2171 2.5117 8.7173 0.7771 c 4.4055 -2.1832 8.0008 -6.8205 9.5326 -12.2952 c 0.6982 -2.4954 0.8194 -7.0858 0.2466 -9.3396 c -1.3524 -5.3217 -5.1579 -10.8977 -9.5201 -13.9491 c -0.9622 -0.6731 -1.8451 -1.3048 -1.962 -1.4038 c -0.1169 -0.099 0.4324 -1.8345 1.2207 -3.8568 c 4.5607 -11.6994 7.6997 -24.3161 10.9088 -43.8463 c 0.7414 -4.5121 0.8802 -5.8563 0.6351 -6.1516 c -0.93 -1.1205 -8.7709 0.3624 -14.917 2.8212 c -4.6817 1.8729 -8.5641 4.9694 -11.5808 9.2364 c -0.6687 0.9459 -2.8108 4.875 -4.7602 8.7312 c -3.9223 7.7591 -7.1315 13.2371 -10.0397 17.1373 c -4.8782 6.542 -11.8366 11.856 -16.91 12.9138 c -0.9883 0.2061 -1.9547 0.3254 -2.1476 0.2651 c -0.1929 -0.0602 -0.6759 -0.1807 -1.0735 -0.2678 c -1.1883 -0.2601 -2.5072 -1.6367 -3.138 -3.2754 c -1.1477 -2.9812 -0.9322 -9.1369 0.5344 -15.2626 c 0.2786 -1.1635 0.4861 -2.1342 0.4612 -2.1571 c -0.0249 -0.0229 -0.4024 -0.0829 -0.839 -0.1334 c -0.7487 -0.0867 -0.8079 -0.0242 -1.042 1.0987 c -0.3063 1.4687 -5.6795 12.1371 -8.4619 16.801 c -3.1753 5.3224 -5.535 8.4603 -8.8667 11.7906 c -7.0448 7.042 -14.0377 9.6857 -20.0128 7.5661 c -3.7311 -1.3236 -6.4089 -3.284 -11.8874 -8.7027 l -4.4979 -4.4488 l 1.7198 -0.612 c 5.2028 -1.8514 11.3877 -5.9477 15.4921 -10.2605 c 7.2876 -7.6578 9.8117 -17.7993 6.08 -24.4288 c -0.8813 -1.5657 -2.9366 -3.7682 -4.5065 -4.8294 c -3.0031 -2.0299 -8.3261 -2.6891 -13.5824 -1.682 c -9.7655 1.8711 -23.8726 9.4841 -34.2475 18.482 l -2.5861 2.2428 l -1.271 -0.1686 c -1.65 -0.2189 -5.0774 0.4326 -7.6818 1.4602 c -6.9935 2.7594 -11.8843 7.0535 -21.5062 18.8825 c -5.8711 7.2178 -9.9955 10.9578 -14.6106 13.2489 c -2.0197 1.0026 -2.7553 1.2278 -4.4234 1.3539 c -2.3185 0.1754 -3.3661 -0.0972 -5.2526 -1.3667 l -1.2973 -0.873 l -0.5666 0.6031 l -0.5666 0.6031 l 0.8906 0.6793 c 1.4275 1.0888 3.701 2.0097 5.3889 2.1827 c 4.2795 0.4388 10.2665 -2.8738 16.1361 -8.9282 c 1.3203 -1.3618 4.4673 -4.9764 6.9934 -8.0323 c 8.8555 -10.713 13.9133 -14.9116 20.6938 -17.1786 c 1.9307 -0.6455 5.2342 -1.1717 5.2342 -0.8337 c 0 0.099 -0.8635 1.1562 -1.919 2.3493 c -8.1706 9.2362 -12.8293 18.8953 -12.2991 25.5004 c 0.507 6.316 5.8355 7.1023 11.3318 1.672 c 5.5166 -5.4504 9.8533 -15.3794 9.8806 -22.6219 c 0.0126 -3.3556 -0.5264 -5.0554 -2.103 -6.632 l -1.1235 -1.1235 l 1.225 -1.1703 c 5.9502 -5.6848 17.9969 -13.0806 27.1894 -16.6923 c 7.3147 -2.874 14.2731 -3.1619 18.6869 -0.7732 c 2.7387 1.4821 5.138 4.9739 5.7785 8.4095 c 0.8038 4.3117 -1.0972 10.6051 -4.6724 15.4683 c -3.8663 5.2591 -12.0973 11.2036 -18.1421 13.1023 l -1.4889 0.4677 l -2.248 -1.9563 c -2.5352 -2.2063 -4.6502 -3.5582 -6.6457 -4.2479 c -1.511 -0.5222 -4.2479 -0.6321 -5.346 -0.2146 c -0.3935 0.1496 -0.76 0.2273 -0.8146 0.1728 c -0.0546 -0.0546 0.7375 -4.1838 1.7601 -9.176 c 1.0226 -4.9923 1.8279 -9.1066 1.7895 -9.1429 c -0.0384 -0.0363 -0.42 -0.1074 -0.848 -0.1579 l -0.7783 -0.0919 l -6.5404 31.75 c -3.5972 17.4625 -6.5125 31.7785 -6.4785 31.8134 c 0.034 0.0349 0.4158 0.1342 0.8483 0.2207 l 0.7864 0.1573 l 4.0674 -19.9321 c 2.2371 -10.9627 4.1012 -19.9761 4.1426 -20.0298 c 0.0414 -0.0537 0.701 0.4497 1.4659 1.1188 c 1.855 1.6227 3.8413 2.301 7.2563 2.478 c 1.9124 0.0991 3.2807 0.0142 4.8288 -0.2994 l 2.1602 -0.4377 l 4.167 4.2757 c 6.2201 6.3824 9.5627 8.874 13.6395 10.167 c 3.9574 1.2552 8.2466 0.7366 12.7855 -1.5459 c 7.9297 -3.9876 14.1965 -11.2777 21.4019 -24.8967 c 0.9689 -1.8314 1.7812 -3.3298 1.8051 -3.3298 c 0.0239 0 0.0524 1.3395 0.0635 2.9766 c 0.0445 6.5742 2.1886 10.1191 6.3211 10.4509 c 2.2506 0.1807 4.0075 -0.2621 7.1525 -1.8025 c 7.8068 -3.8237 13.2646 -10.0021 21.254 -24.0603 l 0.827 -1.4552 l 0.0104 1.5875 c 0.0239 3.6383 1.5531 7.7786 3.2633 8.8356 c 1.1795 0.729 3.3279 0.7367 4.9126 0.0177 c 5.3536 -2.429 12.6145 -11.1657 18.3522 -22.0825 c 0.9943 -1.8918 1.7467 -3.0824 1.6721 -2.6458 c -0.0747 0.4366 -0.2636 1.5676 -0.4198 2.5135 c -1.5053 9.112 -4.1564 20.2193 -6.7842 28.4234 c -0.8656 2.7024 -3.7341 10.461 -3.9602 10.7112 c -0.054 0.0597 -0.9025 -0.207 -1.8857 -0.5927 c -5.0702 -1.989 -11.843 -2.4102 -18.1272 -1.1273 c -4.4338 0.9052 -8.362 2.2273 -12.1031 4.0737 c -8.5195 4.2046 -14.6216 9.7695 -17.9488 16.3684 c -3.8207 7.5778 -1.716 16.4907 4.5911 19.4422 c 0.9336 0.4369 2.2672 0.8978 2.9635 1.0242 c 1.957 0.3553 5.3273 0.0646 7.9027 -0.6818 z m -8.7467 -1.3349 c -2.979 -0.9546 -5.0038 -2.9456 -6.2686 -6.164 c -0.4814 -1.225 -0.5826 -2.0126 -0.5814 -4.5258 c 0.0013 -2.6811 0.0895 -3.2786 0.742 -5.0271 c 1.4325 -3.8386 3.7021 -7.0578 7.3798 -10.4675 c 6.4295 -5.9611 15.9157 -10.2989 25.1799 -11.5141 c 3.1227 -0.4096 8.3741 -0.1646 11.1125 0.5186 c 2.4484 0.6108 4.8948 1.5789 4.8948 1.9371 c 0 0.4063 -3.5807 7.311 -5.0847 9.8048 c -5.0934 8.4455 -11.9998 15.7422 -19.2637 20.3524 c -2.9053 1.8439 -6.5255 3.6427 -8.9891 4.4665 c -3.1132 1.041 -6.985 1.3038 -9.1215 0.6192 z M -30.7512 201.8144 c -1.3524 -1.3524 -1.6368 -3.578 -0.9116 -7.1341 c 1.2786 -6.2692 5.9608 -14.1398 12.4338 -20.9007 l 2.0992 -2.1925 l 0.8492 0.5285 c 2.537 1.5789 3.03 6.6193 1.2577 12.8565 c -0.8951 3.1498 -3.6578 8.7591 -5.6056 11.3813 c -3.8612 5.1983 -8.0992 7.4845 -10.1228 5.4609 z M 3.8486 190.1287 c -2.2121 -0.2838 -4.2954 -1.3967 -5.3793 -2.8738 c -0.4959 -0.6757 -0.9045 -1.443 -0.9081 -1.7051 c -0.017 -1.2328 4.0446 -1.7261 6.4899 -0.7882 c 1.9788 0.759 7.1314 4.5277 6.7325 4.9242 c -0.1728 0.1718 -4.1036 0.7162 -4.8475 0.6714 c -0.3169 -0.0191 -1.2562 -0.1219 -2.0874 -0.2286 z M 106.069 170.405 c -0.4395 -0.3698 -1.071 -1.3521 -1.4033 -2.1828 c -0.5309 -1.3273 -0.6028 -1.9594 -0.5935 -5.2145 c 0.01 -3.319 0.0871 -3.938 0.7466 -5.9531 c 2.292 -7.0041 6.6825 -12.4664 12.3275 -15.337 c 2.6784 -1.362 8.8167 -3.1418 12.6381 -3.6644 l 1.6494 -0.2256 v 0.904 c 0 1.3723 -1.1671 4.5558 -3.1769 8.6657 c -5.9178 12.1015 -15.928 23.6802 -20.4724 23.6802 c -0.5953 0 -1.1962 -0.2355 -1.7154 -0.6724 z m 42.6879 -17.9145 c 0.0744 -0.3274 0.2617 -1.1873 0.4162 -1.9109 c 0.1545 -0.7236 1.0678 -2.9858 2.0295 -5.0271 c 7.1046 -15.0797 14.4388 -24.0962 19.7681 -24.3024 c 1.9769 -0.0765 3.0635 0.9217 3.0588 2.8102 c -0.001 0.4661 -0.3021 2.2762 -0.6689 4.0225 c -1.3965 6.6498 -1.1352 9.2496 1.1604 11.5452 c 2.0588 2.0588 4.5508 2.2536 8.4676 0.6621 c 6.7166 -2.7292 16.1193 -12.4601 23.288 -24.101 l 1.6217 -2.6333 v 2.1147 c 0 3.6936 1.3996 7.5855 3.1528 8.767 c 1.2315 0.8299 3.3853 0.8198 5.1816 -0.0242 c 4.7407 -2.2277 11.2675 -9.6572 16.4651 -18.7423 l 1.3179 -2.3036 l 0.1542 2.4358 c 0.1803 2.8484 0.6816 4.4662 1.8073 5.8318 c 2.3325 2.8298 6.1885 2.8199 11.7184 -0.03 c 8.8371 -4.5543 15.2958 -12.669 24.0696 -30.2413 c 2.4441 -4.8951 3.6984 -8.0826 4.7264 -12.0108 l 0.3442 -1.3153 l 0.7655 1.3153 c 1.1939 2.0513 2.2219 3.3042 5.8037 7.0732 c 3.7586 3.9551 4.5661 4.9844 5.8644 7.4752 c 0.739 1.4178 0.9144 2.0516 0.9144 3.3037 c 0 1.94 -0.2656 2.2184 -2.6289 2.7559 c -4.1805 0.9508 -7.6216 0.2652 -11.2907 -2.2498 l -1.0873 -0.7453 l -0.7313 0.7633 c -0.6545 0.6832 -0.7125 0.8887 -0.5522 1.9575 c 0.4311 2.8745 2.4705 5.5197 4.9227 6.3849 c 3.9106 1.3798 9.8614 -0.9553 11.9627 -4.694 c 0.4254 -0.7568 1.0059 -1.265 2.0498 -1.794 c 4.2294 -2.1437 11.8004 -8.9745 16.4194 -14.8142 c 2.8448 -3.5966 6.5697 -9.285 8.9346 -13.6443 c 2.5835 -4.7623 2.5796 -4.7497 1.6099 -5.1513 c -0.4323 -0.1791 -0.8276 -0.2798 -0.8785 -0.2238 c -0.0509 0.056 -0.8811 1.6947 -1.8451 3.6416 c -5.9985 12.1158 -14.5057 22.3343 -23.2344 27.9082 c -0.8297 0.5299 -1.5574 0.9634 -1.6169 0.9634 c -0.0595 0 -0.1742 -0.727 -0.2547 -1.6155 c -0.2843 -3.1352 -1.9826 -5.7891 -6.9661 -10.8856 c -3.882 -3.97 -5.1524 -5.5648 -6.6926 -8.401 c -1.032 -1.9004 -1.0778 -2.0852 -1.0817 -4.3656 c -0.005 -2.7858 -0.4884 -4.0747 -1.6846 -4.4897 c -0.6482 -0.2249 -0.8264 -0.1743 -1.2568 0.3572 c -0.6879 0.8495 -0.6286 2.1267 0.1889 4.0689 c 0.6168 1.4655 0.6776 1.8945 0.5708 4.0269 c -0.1704 3.4024 -1.0112 5.6481 -5.4011 14.4252 c -8.5412 17.0772 -14.534 24.518 -23.2445 28.8608 c -5.4495 2.717 -8.5632 2.3147 -9.9382 -1.284 c -0.736 -1.9263 -0.7957 -5.768 -0.1427 -9.1883 c 0.4647 -2.4342 2.5328 -7.7158 4.2694 -10.9037 l 0.8952 -1.6433 l -0.7201 -0.5128 l -0.7201 -0.5128 l -0.7415 1.0316 c -0.6295 0.8757 -0.8888 1.0323 -1.7165 1.0362 c -2.4022 0.0114 -7.521 1.1088 -11.0292 2.3646 c -3.3722 1.2071 -4.6183 1.8073 -6.8764 3.312 c -4.2129 2.8074 -7.4441 6.8902 -10.3965 13.1369 c -4.8654 10.294 -12.4412 20.6778 -19.3833 26.5676 c -4.2759 3.6277 -8.6644 5.9553 -11.1951 5.9376 c -1.5093 -0.0105 -2.962 -0.8879 -3.7832 -2.285 c -0.6834 -1.1627 -0.751 -1.5011 -0.7316 -3.6623 c 0.0146 -1.6234 0.2536 -3.3496 0.7508 -5.424 c 1.5144 -6.3175 0.2729 -8.9315 -4.1101 -8.6534 c -5.3238 0.3377 -12.0055 7.5091 -18.2465 19.5835 c -0.8898 1.7215 -1.6535 3.0919 -1.697 3.0453 c -0.1824 -0.195 9.115 -47.3279 9.6461 -48.9003 c 1.0797 -3.197 2.6407 -5.7696 4.904 -8.082 c 4.6252 -4.7255 9.2799 -5.5072 12.3014 -2.0659 c 4.2398 4.8289 3.7139 14.6945 -1.0355 19.423 c -1.8554 1.8472 -3.4343 2.6313 -5.2988 2.6313 c -1.3032 0 -1.4895 -0.0831 -2.5376 -1.1311 c -0.804 -0.804 -1.2546 -1.5557 -1.5579 -2.5992 c -0.4089 -1.4066 -0.4598 -1.4633 -1.2153 -1.3524 c -0.9628 0.1413 -0.997 0.5369 -0.2248 2.6008 c 0.6701 1.7911 2.3502 3.5904 3.799 4.0685 c 2.3939 0.7901 5.415 -0.2974 8.0825 -2.9094 c 2.8778 -2.8179 4.2009 -6.075 4.4185 -10.8771 c 0.1641 -3.6217 -0.3132 -6.2755 -1.5556 -8.6489 c -3.4015 -6.4981 -10.1702 -6.7406 -16.2513 -0.5824 c -2.7157 2.7501 -4.7426 6.1868 -5.7739 9.7896 c -0.678 2.3686 -11.5685 59.005 -11.3988 59.2796 c 0.0855 0.1384 0.4439 0.2516 0.7963 0.2516 c 0.4481 0 0.6815 -0.1791 0.7761 -0.5953 z m 63.41 -29.975 c -0.4395 -0.3698 -1.0713 -1.3521 -1.4039 -2.1828 c -0.5335 -1.3323 -0.6044 -1.9626 -0.6014 -5.3468 c 0.003 -3.6441 0.0469 -3.9625 0.8714 -6.35 c 1.1325 -3.2794 2.6865 -6.1624 4.6795 -8.6815 c 2.5512 -3.2247 5.2743 -5.2561 9.2826 -6.9248 c 2.2641 -0.9425 8.1487 -2.5008 10.7704 -2.8521 c 1.5976 -0.214 1.7896 -0.1935 1.6666 0.1785 c -0.0765 0.2313 -0.4921 1.4325 -0.9235 2.6694 c -0.4314 1.2369 -1.0463 3.1085 -1.3664 4.159 c -1.6947 5.5617 -9.5518 17.266 -14.8972 22.1915 c -3.8792 3.5745 -6.3979 4.5534 -8.0781 3.1396 z M 278.7898 93.8852 c -1.5945 -0.8086 -2.9795 -2.4196 -3.4049 -3.9606 c -0.1474 -0.5339 -0.23 -1.0086 -0.1836 -1.0551 c 0.0464 -0.0464 0.5334 0.2723 1.0821 0.7084 c 2.6236 2.085 6.499 3.0323 9.9699 2.4371 c 1.0398 -0.1783 1.936 -0.2787 1.9916 -0.223 c 0.212 0.212 -1.919 1.6197 -3.3318 2.2009 c -2.1239 0.8738 -4.2622 0.8361 -6.1233 -0.1077 z M 75.6025 145.2449 c 0.8963 -1.0208 1.1391 -1.7467 1.0159 -3.0366 c -0.0757 -0.7924 -0.1744 -0.8965 -0.8502 -0.8965 c -1.0797 0 -2.2938 1.5468 -2.4749 3.1531 c -0.2393 2.1233 0.8166 2.48 2.3092 0.78 z"
       id="path1" /></g></svg>
