<svg id="hello" xmlns="http://www.w3.org/2000/svg" xmlns:xlink="http://www.w3.org/1999/xlink" viewBox="0 0 1920 1080" shape-rendering="geometricPrecision" text-rendering="geometricPrecision" project-id="c51079d3d5eb4ecebe5fb2eaa7222284" export-id="80b6fb5f1eaf4889b344f5104590d855" cached="false">
<path id="hello-u-h_1" d="M680.35668,431.707539q.916196,4.157203,7.711447,6.952755c32.428549,11.652156,58.024075,0,86.246144-13.799383Q746.715504,464.879122,666.679081,597.3532" transform="translate(.000002 0.000001)" fill="none" stroke="#deff00" stroke-width="6" stroke-linecap="round" stroke-linejoin="round"/>
<path id="hello-u-h_2" d="M853.021833,438.660295q-64.674241,133.694735-78.70756,158.692906c0-30.744756-2.975093-39.126641-9.679172-51.529187s-20.112236-23.12907-28.827538-26.816314-25.20128-5.836205-36.470357-5.362804-11.269078,0-23.829097,2.288107c-13.783782,7.218024,3.130875,14.480293,16.632769,15.067332s71.278169-1.521767,82.173394-3.326554c11.210518,0,63.743259-10.889479,69.630461-12.806798c4.842166-1.222087,23.473198-7.545258,30.681551-11.825218" transform="translate(.000001-1)" fill="none" stroke="#deff00" stroke-width="6" stroke-linecap="round" stroke-linejoin="round"/>
<path id="hello-u-e" d="M835.074927,597.353201c23.15598-9.627538,53.376462-14.455607,70.50106-46.086045c17.211138-32.499036-21.195133-31.674292-33.886173-16.60696-10.458196,10.790549-15.436458,22.43626-17.92317,31.206875-3.30171,41.918341,32.184776,49.524701,69.020481,19.441655" transform="translate(-.74481-12.428404)" fill="none" stroke="#deff00" stroke-width="6" stroke-linecap="round" stroke-linejoin="round"/>
<path id="hello-u-l" d="M966.968748,577.647665c25.986197-19.612237,52.812693-32.966801,63.479197-74.6059.704911-4.789799.70491-27.95857-24.319435,0-11.613652,14.964983-31.184688,62.726992-31.929675,79.855829c0,19.115468,40.239684,15.237477,56.994096,7.449866q15.269607-7.449866,15.553031-7.449866" transform="translate(-44.926433-4.767343)" fill="none" stroke="#deff00" stroke-width="6" stroke-linecap="round" stroke-linejoin="round"/>
<path id="hello-u-second_l" d="M1046.745958,582.897593c48.180333-51.897259,53.551913-58.409343,60.434818-71.790536s.149642-30.607684-19.32899-8.065293c-11.115124,14.964983-18.789187,27.95857-24.554045,42.782249-9.941973,26.99049-8.430457,29.623714-7.193176,37.07358s12.580379,20.149661,53.056277,7.449866q17.335261-7.449866,26.603656-7.449866" transform="translate(-44.926429-4.767342)" fill="none" stroke="#deff00" stroke-width="6" stroke-linecap="round" stroke-linejoin="round"/>
<path id="hello-u-o_1" d="M1135.764503,582.897594c.305511,13.799489,15.57883,27.564101,41.857595,11.778555c20.040218-11.778553,27.923847-28.755559,33.493539-43.408992c4.446432-19.644323-39.270393-44.215197-64.057403,0q-11.206851,13.514939-11.293731,31.630437" transform="translate(-44.926434-4.767343)" fill="none" stroke="#deff00" stroke-width="6" stroke-linecap="round" stroke-linejoin="round"/>
<path id="hello-u-o_2" d="M1244.11208,540c-28.039713,8.039214-64.313472,7.640729-89.155418,0" transform="translate(-44.926433-4.767343)" fill="none" stroke="#deff00" stroke-width="6" stroke-linecap="round" stroke-linejoin="round"/></svg>
