<svg id="untitled" xmlns="http://www.w3.org/2000/svg" xmlns:xlink="http://www.w3.org/1999/xlink" viewBox="0 0 1920 1080" shape-rendering="geometricPrecision" text-rendering="geometricPrecision" project-id="d715191f0a304d8cb544879b64fc763f" export-id="6a829ac54bab4418aaca55517199c89a" cached="false">
<path id="untitled-u-h_1" d="M746.818511,425.776856l-20.206058,183.15814" fill="none" stroke="#3f5787" stroke-width="7" stroke-linecap="round" stroke-linejoin="round"/>
<path id="untitled-u-h_3" d="M746.818511,425.776856l-20.206058,183.15814" transform="translate(107.548374 0)" fill="none" stroke="#3f5787" stroke-width="7" stroke-linecap="round" stroke-linejoin="round"/>
<path id="untitled-u-h_2" d="M736.715482,507.802581l107.548374-.216665" fill="none" stroke="#3f5787" stroke-width="7" stroke-linecap="round" stroke-linejoin="round"/>\
<path id="untitled-u-e" d="M886.212615,583.910626c7.151511-5.482825,33.612104-27.652511,38.379778-32.420185C960,517.355925,930.760567,507.802579,912.043792,517.355925c-17.616799,4.736041-46.27045,73.822854-9.744437,91.579069q34.22033,8.819657,85.333725-80.042054" transform="translate(0 0.000002)" fill="none" stroke="#3f5787" stroke-width="7" stroke-linecap="round" stroke-linejoin="round"/>
<path id="untitled-u-l_1" d="M987.63308,528.892942l13.884525-103.116086q-16.616888,122.569468-18.80812,140.35162c-2.137096,17.782152,3.510405,72.799838,36.042645,17.782152q32.53224-55.017686,30.865141-55.017686" transform="translate(.000001 0)" fill="none" stroke="#3f5787" stroke-width="7" stroke-linecap="round" stroke-linejoin="round"/>
<path id="untitled-u-l_2" d="M987.63308,528.892942l13.884525-103.116086q-16.616888,122.569468-18.80812,140.35162c-5.070855,29.617557,14.183229,69.476005,45.805417,18.91237q17.227944-32.420185,27.726223-56.147904" transform="translate(61.573881-1.130218)" fill="none" stroke="#3f5787" stroke-width="7" stroke-linecap="round" stroke-linejoin="round"/>
<path id="untitled-u-o_1" d="" fill="none" stroke="#3f5787" stroke-width="7" stroke-linecap="round" stroke-linejoin="round"/>
<path id="untitled-u-o_2" d="M1117.815006,528.892942c12.982773-14.997982,63.205398-21.307026,57.351101,11.107058-29.48823,90.468267-78.022397,77.779897-70.756046,26.128476c3.090799-26.128476,9.00375-29.567839,12.068502-34.620538s23.109729-31.342668,70.957391-6.97441" transform="translate(.000001 0)" fill="none" stroke="#3f5787" stroke-width="7" stroke-linecap="round" stroke-linejoin="round"/>
</svg>
