<svg xmlns="http://www.w3.org/2000/svg" width="1890" height="1417" viewBox="0 0 1890 1417">
  <metadata><?xpacket begin="﻿" id="W5M0MpCehiHzreSzNTczkc9d"?>
<x:xmpmeta xmlns:x="adobe:ns:meta/" x:xmptk="Adobe XMP Core 5.6-c138 79.159824, 2016/09/14-01:09:01        ">
   <rdf:RDF xmlns:rdf="http://www.w3.org/1999/02/22-rdf-syntax-ns#">
      <rdf:Description rdf:about=""/>
   </rdf:RDF>
</x:xmpmeta>
                                                                                                    
                                                                                                    
                                                                                                    
                                                                                                    
                                                                                                    
                                                                                                    
                                                                                                    
                                                                                                    
                                                                                                    
                                                                                                    
                                                                                                    
                                                                                                    
                                                                                                    
                                                                                                    
                                                                                                    
                                                                                                    
                                                                                                    
                                                                                                    
                                                                                                    
                                                                                                    
                           
<?xpacket end="w"?></metadata>
<defs>
    <style>
      .cls-1 {
        fill-rule: evenodd;
      }
    </style>
  </defs>
  <path id="Hello" class="cls-1" d="M812.79,571.9a5.522,5.522,0,0,0-1.648-1.4,8.411,8.411,0,0,0-2.045-.824,7.807,7.807,0,0,0-1.922-.275,5.207,5.207,0,0,0-2.411.58,9.492,9.492,0,0,0-2.014,1.373,7.354,7.354,0,0,0-1.4,1.648,2.921,2.921,0,0,0-.519,1.4q0,4.518-.275,9.186t-0.732,9.124q-0.458,4.456-1.007,8.454t-1.129,7.171q-0.582,3.175-1.1,5.28a10.889,10.889,0,0,1-.946,2.777q-0.672,1.1-3.876,1.953a66.425,66.425,0,0,1-7.782,1.5q-4.577.642-9.857,1.1t-10.071.732q-4.791.276-8.422,0.4t-4.914.122q-0.855,0-2.014-.061a13.608,13.608,0,0,1-2.258-.305,6.63,6.63,0,0,1-1.892-.7,1.576,1.576,0,0,1-.855-1.312,39.706,39.706,0,0,1,.7-8.972q0.884-4.761,1.953-9.644t1.862-9.674a36.06,36.06,0,0,0,.427-9,5.968,5.968,0,0,0-1.648-3.815,8.258,8.258,0,0,0-4.333-1.923,3.849,3.849,0,0,0-1.984.153,4.783,4.783,0,0,0-1.648.976,5.233,5.233,0,0,0-1.129,1.465,4.143,4.143,0,0,0-.488,1.557q-0.674,6.348-1.4,13.061t-1.526,13.458q-0.793,6.746-1.648,13.275t-1.709,12.482q-0.855,5.95-1.74,11.108t-1.739,9.125q-0.183,1.039-.549,2.5T726.364,659q-0.366,1.588-.61,3.113a10.306,10.306,0,0,0-.122,2.686,5.5,5.5,0,0,0,.854,2.441,17.07,17.07,0,0,0,1.862,2.564,12.882,12.882,0,0,0,2.228,2.044,3.624,3.624,0,0,0,1.953.824,3.882,3.882,0,0,0,3.387-1.709,11.777,11.777,0,0,0,1.74-4.455,39.134,39.134,0,0,0,.671-6.256q0.121-3.51.244-7.111,0.06-1.341.244-3.326t0.458-4.151q0.274-2.166.61-4.394t0.7-4.029a30.348,30.348,0,0,1,.763-3.051,3.105,3.105,0,0,1,.763-1.5,10.976,10.976,0,0,1,2.228-.457q1.861-.276,4.456-0.519t5.523-.458q2.929-.213,5.554-0.4t4.517-.274q1.891-.091,2.319-0.092,2.075,0,5.31-.214t6.684-.488q3.447-.274,6.653-0.519t5.157-.244a4.11,4.11,0,0,1,2.5.763,2.916,2.916,0,0,1,1.16,2.228,39.575,39.575,0,0,1-.061,4.822q-0.183,2.991-.58,6.469t-0.915,7.172q-0.519,3.693-.946,6.928T791,663.057a24.111,24.111,0,0,0-.183,3.388,5.621,5.621,0,0,0,2.106,3.936,6.421,6.421,0,0,0,1.739.977,4.873,4.873,0,0,0,1.648.336,4.556,4.556,0,0,0,2.106-.7,11.309,11.309,0,0,0,2.441-1.892,12.223,12.223,0,0,0,2.015-2.655,5.689,5.689,0,0,0,.763-3.052q-0.123-2.746-.031-6.317t0.275-7.294q0.183-3.721.427-7.355t0.458-6.591q0.213-2.961.366-4.975t0.214-2.441q0.426-5.676,1.22-11.322t1.74-10.986q0.945-5.34,1.922-10.193t1.74-9.033q0.762-4.18,1.221-7.447a28.983,28.983,0,0,0,.335-5.462A3.567,3.567,0,0,0,812.79,571.9Zm90.088,53.589q-1.344,0-4.334,2.625l-3.3,3.3q-4.151,4.151-8.362,7.9t-9.4,7.537q-2.808,2.015-6.012,3.937a58.039,58.039,0,0,1-6.622,3.418,46.127,46.127,0,0,1-6.958,2.411,27.97,27.97,0,0,1-7.019.916q-6.226,0-9.8-3.083t-3.571-9a82.755,82.755,0,0,0,7.721-5.585q3.2-2.655,5.829-4.852a94.384,94.384,0,0,0,7.08-6.5,37.147,37.147,0,0,0,4.73-5.859,21.122,21.122,0,0,0,2.564-5.554,17.517,17.517,0,0,0,.64-5.524A11.67,11.67,0,0,0,864.944,607a18.249,18.249,0,0,0-2.716-4.029,4.393,4.393,0,0,0-1.465-1.129,12.747,12.747,0,0,0-1.892-.763,11.846,11.846,0,0,0-1.831-.427,10.156,10.156,0,0,0-1.343-.122,17.127,17.127,0,0,0-4,.732,20.011,20.011,0,0,0-3.846,1.648,25.784,25.784,0,0,0-3.54,2.381,26.791,26.791,0,0,0-3.021,2.807,51.608,51.608,0,0,0-10.1,17.395,59.394,59.394,0,0,0-2.96,18.616q0,11.475,5.4,17.151t15.168,5.676a32.035,32.035,0,0,0,9.368-1.343,50.836,50.836,0,0,0,9.735-4,75.546,75.546,0,0,0,9.675-6.164,110.03,110.03,0,0,0,9.216-7.691,108.785,108.785,0,0,0,8.362-8.7,111.833,111.833,0,0,0,7.11-9.155,8.259,8.259,0,0,0,1.343-3.235q0-1.16-.732-1.16h0Zm-46.57-7.263a16.113,16.113,0,0,1-1.984,3.54,29.746,29.746,0,0,1-2.777,3.265q-1.526,1.557-2.991,2.9a64.445,64.445,0,0,1-5,4.15l-5.859,4.394q0.243-1.341.58-3.051t0.793-3.449q0.459-1.739.977-3.418a19.835,19.835,0,0,1,1.19-3.021,42.908,42.908,0,0,1,6.1-9.918q3.234-3.755,6.469-3.937a2.134,2.134,0,0,1,1.282.4,3.852,3.852,0,0,1,.977,1.068,5.183,5.183,0,0,1,.641,1.556,10.79,10.79,0,0,1,.274,1.8A9.151,9.151,0,0,1,856.308,618.227Zm97.778,11.78a2.837,2.837,0,0,0-1.862.976q-1.007.978-1.8,1.892-0.978,1.161-2.442,2.839t-3.418,4q-2.44,2.808-5.371,5.829A56.453,56.453,0,0,1,933,651.064a35.273,35.273,0,0,1-6.805,4.12,17.176,17.176,0,0,1-7.2,1.617,11.323,11.323,0,0,1-5.707-1.343,10.673,10.673,0,0,1-3.845-3.784,17.61,17.61,0,0,1-2.167-5.89,40.165,40.165,0,0,1-.671-7.66q0-3.9.427-8.422t1.129-9.156q0.7-4.637,1.526-9.094t1.556-8.3q0.428-1.951,1.4-6.713t2.5-12.452q0.3-1.952.7-3.692t0.763-3.632a4.586,4.586,0,0,0-4.333-2.746,5.428,5.428,0,0,0-2.564.61,6.874,6.874,0,0,0-2.044,1.648,9.333,9.333,0,0,0-1.465,2.38,12,12,0,0,0-.824,2.808q-0.123.855-.336,2.167t-0.457,3.021q-0.368,2.5-.611,4.181t-0.549,3.326q-0.306,1.648-.7,3.6t-0.946,5q-0.855,4.457-1.679,9.247t-1.5,9.674q-0.672,4.884-1.1,9.735t-0.427,9.308a36.762,36.762,0,0,0,1.557,11.322,23,23,0,0,0,4.272,7.965,16.851,16.851,0,0,0,6.378,4.7,20.272,20.272,0,0,0,7.874,1.526,20.607,20.607,0,0,0,6.439-1.069,33.8,33.8,0,0,0,6.348-2.838,47.736,47.736,0,0,0,5.859-3.967,58.8,58.8,0,0,0,5.1-4.517q1.525-1.524,3.113-3.326t3.052-3.54q1.464-1.74,2.655-3.357a31.6,31.6,0,0,0,1.861-2.777q3.48-6.1,3.479-8.972,0-1.77-.976-1.77h0Zm55.484,0a2.829,2.829,0,0,0-1.86.976c-0.68.652-1.28,1.282-1.81,1.892-0.65.774-1.46,1.72-2.44,2.839s-2.11,2.451-3.41,4q-2.449,2.808-5.376,5.829a56.545,56.545,0,0,1-6.195,5.524,35.273,35.273,0,0,1-6.805,4.12,17.18,17.18,0,0,1-7.2,1.617,11.321,11.321,0,0,1-5.707-1.343,10.673,10.673,0,0,1-3.845-3.784,17.61,17.61,0,0,1-2.167-5.89,40.165,40.165,0,0,1-.671-7.66q0-3.9.427-8.422t1.129-9.156q0.7-4.637,1.526-9.094t1.556-8.3q0.426-1.951,1.4-6.713t2.5-12.452q0.306-1.952.7-3.692t0.763-3.632a4.586,4.586,0,0,0-4.333-2.746,5.428,5.428,0,0,0-2.564.61,6.874,6.874,0,0,0-2.044,1.648,9.333,9.333,0,0,0-1.465,2.38,12,12,0,0,0-.824,2.808q-0.123.855-.336,2.167t-0.458,3.021q-0.366,2.5-.61,4.181t-0.549,3.326q-0.306,1.648-.7,3.6t-0.946,5q-0.857,4.457-1.679,9.247t-1.5,9.674q-0.672,4.884-1.1,9.735t-0.427,9.308a36.794,36.794,0,0,0,1.556,11.322,23.022,23.022,0,0,0,4.273,7.965,16.851,16.851,0,0,0,6.378,4.7,20.268,20.268,0,0,0,7.874,1.526,20.607,20.607,0,0,0,6.439-1.069,33.764,33.764,0,0,0,6.347-2.838,47.671,47.671,0,0,0,5.86-3.967,58.8,58.8,0,0,0,5.1-4.517q1.525-1.524,3.113-3.326t3.054-3.54c0.97-1.16,1.86-2.278,2.65-3.357a28.509,28.509,0,0,0,1.86-2.777q3.48-6.1,3.48-8.972c0-1.18-.32-1.77-0.97-1.77h0Zm80.93-13.977q-2.745,1.221-5.13,2.075a33.853,33.853,0,0,1-4.79,1.343,42.839,42.839,0,0,1-4.97.7c-1.71.143-3.58,0.213-5.62,0.213a33.881,33.881,0,0,1-6.77-.763q-3.735-.762-7.11-1.77a52.249,52.249,0,0,1-5.86-2.075,11.862,11.862,0,0,1-3.02-1.617q-1.71-1.892-3.03-3.418a19.825,19.825,0,0,0-2.56-2.533,10.1,10.1,0,0,0-2.65-1.557,9.255,9.255,0,0,0-3.36-.549,13.311,13.311,0,0,0-5.01,1.068,28.981,28.981,0,0,0-5.18,2.777,40.239,40.239,0,0,0-4.92,3.876,42.862,42.862,0,0,0-4.18,4.425q-3.3,4.029-6.22,8.087a67.612,67.612,0,0,0-5.16,8.3,46.121,46.121,0,0,0-3.54,8.789,33.871,33.871,0,0,0-1.31,9.491,11.678,11.678,0,0,0,1.06,4.517,20.242,20.242,0,0,0,2.84,4.7,18.446,18.446,0,0,0,4.03,3.723,8.192,8.192,0,0,0,4.64,1.526,57.151,57.151,0,0,0,6.77-.4,46.429,46.429,0,0,0,6.47-1.22,36.506,36.506,0,0,0,5.96-2.136,29.076,29.076,0,0,0,5.21-3.083,43.525,43.525,0,0,0,8-7.812,44.057,44.057,0,0,0,6.16-10.193,25.054,25.054,0,0,0,2.45-10.254,23.943,23.943,0,0,0-.4-4.639,12.063,12.063,0,0,0-1.8-4.089,31.1,31.1,0,0,0,9.03,3.937,40.772,40.772,0,0,0,19.07.122,21.6,21.6,0,0,0,6.08-2.472,9.428,9.428,0,0,0,1.8-1.434,16.1,16.1,0,0,0,1.62-1.892,11.4,11.4,0,0,0,1.19-2.076,5.387,5.387,0,0,0,.45-2.105,6.388,6.388,0,0,0-.24-1.587h0Zm-45.44,17.822a23.33,23.33,0,0,1-.34,2.441,20.236,20.236,0,0,1-.67,2.686,8.693,8.693,0,0,1-1.04,2.258q-0.915,1.405-1.95,2.838c-0.69.957-1.42,1.892-2.2,2.808s-1.55,1.78-2.35,2.594a20.051,20.051,0,0,1-2.41,2.136q-2.5,1.955-4.39,3.174a19.629,19.629,0,0,1-3.76,1.923,17.654,17.654,0,0,1-4.05.976,43.816,43.816,0,0,1-5.31.275,4.057,4.057,0,0,1-2.23-.733,8.757,8.757,0,0,1-2.02-1.8,11.111,11.111,0,0,1-1.43-2.2,4.526,4.526,0,0,1-.55-1.923q0-1.281.15-2.9c0.1-1.078.26-2.156,0.46-3.235s0.45-2.126.73-3.143a14.988,14.988,0,0,1,.98-2.625c0.85-1.749,1.71-3.326,2.56-4.73s1.74-2.747,2.66-4.028,1.89-2.573,2.93-3.876,2.16-2.747,3.39-4.334q0.915-1.158,1.86-2.227a20.034,20.034,0,0,1,1.86-1.862,9.847,9.847,0,0,1,1.77-1.251,3.4,3.4,0,0,1,1.59-.458,5.847,5.847,0,0,1,2.8,1.221,24.561,24.561,0,0,0,4.64,2.319,3.516,3.516,0,0,1,3.08.977,8.852,8.852,0,0,1,2.02,3.143,18.036,18.036,0,0,1,1.07,4.089,22.739,22.739,0,0,1,.24,3.876Q1045.15,632.754,1045.06,633.852Z"/>
</svg>
